<?xml version="1.0" encoding="iso-8859-1"?>
<!-- Generator: Adobe Illustrator 25.0.0, SVG Export Plug-In . SVG Version: 6.00 Build 0)  -->
<svg version="1.1" xmlns="http://www.w3.org/2000/svg" xmlns:xlink="http://www.w3.org/1999/xlink" x="0px" y="0px"
	 viewBox="0 0 500 500" style="enable-background:new 0 0 500 500;" xml:space="preserve">
<g id="BACKGROUND">
	<rect style="fill:#FFFFFF;" width="500" height="500"/>
</g>
<g id="OBJECTS">
	<g>
		
			<image style="overflow:visible;opacity:0.15;" width="1685" height="1578" xlink:href="4998DE58.png"  transform="matrix(0.24 0 0 0.24 51.84 67.44)">
		</image>
		<g>
			<g>
				<g>
					<g>
						<defs>
							
								<ellipse id="SVGID_1_" transform="matrix(0.158 -0.9874 0.9874 0.158 177.1118 506.681)" cx="385.652" cy="149.49" rx="44.631" ry="44.631"/>
						</defs>
						<clipPath id="SVGID_2_">
							<use xlink:href="#SVGID_1_"  style="overflow:visible;"/>
						</clipPath>
					</g>
					<g>
						<defs>
							
								<ellipse id="SVGID_3_" transform="matrix(0.7071 -0.7071 0.7071 0.7071 5.4348 312.1003)" cx="379.456" cy="149.49" rx="44.631" ry="44.631"/>
						</defs>
						<clipPath id="SVGID_4_">
							<use xlink:href="#SVGID_3_"  style="overflow:visible;"/>
						</clipPath>
					</g>
				</g>
			</g>
			<g>
				<g>
					<path style="fill:none;stroke:#F7E287;stroke-width:4.2447;stroke-miterlimit:10;" d="M159.987,324.221h7.359
						c9.49,0,17.183,7.693,17.183,17.183l0,0c0,9.49-7.693,17.183-17.183,17.183h-7.359"/>
					<path style="fill:none;stroke:#F7E287;stroke-width:4.2447;stroke-miterlimit:10;" d="M159.987,358.587h7.359
						c9.49,0,17.183,7.693,17.183,17.183l0,0c0,9.49-7.693,17.183-17.183,17.183h-7.359h92.281"/>
				</g>
				
					<ellipse transform="matrix(0.1546 -0.988 0.988 0.1546 -174.9688 581.4187)" style="fill:none;stroke:#EBD160;stroke-width:4.2447;stroke-miterlimit:10;" cx="252.268" cy="392.952" rx="11.222" ry="11.222"/>
				<g>
					<g>
						<g>
							
								<line style="fill:none;stroke:#F7E287;stroke-width:4.2445;stroke-miterlimit:10;" x1="147.691" y1="233.555" x2="142.373" y2="233.555"/>
							
								<line style="fill:none;stroke:#F7E287;stroke-width:4.2445;stroke-miterlimit:10;stroke-dasharray:8.9191,8.9191;" x1="133.454" y1="233.555" x2="102.237" y2="233.555"/>
							<polyline style="fill:none;stroke:#F7E287;stroke-width:4.2445;stroke-miterlimit:10;" points="97.777,233.555 
								92.46,233.555 92.46,228.237 							"/>
							
								<line style="fill:none;stroke:#F7E287;stroke-width:4.2445;stroke-miterlimit:10;stroke-dasharray:11.3107,11.3107;" x1="92.46" y1="216.927" x2="92.46" y2="132.097"/>
							<polyline style="fill:none;stroke:#F7E287;stroke-width:4.2445;stroke-miterlimit:10;" points="92.46,126.441 92.46,121.124 
								97.777,121.124 							"/>
							
								<line style="fill:none;stroke:#F7E287;stroke-width:4.2445;stroke-miterlimit:10;stroke-dasharray:11.8192,11.8192;" x1="109.597" y1="121.124" x2="127.325" y2="121.124"/>
							
								<line style="fill:none;stroke:#F7E287;stroke-width:4.2445;stroke-miterlimit:10;" x1="133.235" y1="121.124" x2="138.553" y2="121.124"/>
						</g>
					</g>
					<polyline style="fill:none;stroke:#F7E287;stroke-width:4.2445;stroke-miterlimit:10;stroke-dasharray:10.6355;" points="
						265.615,119.886 295.151,119.886 295.151,88.664 379.456,88.664 379.456,104.859 					"/>
					<g>
						<path style="fill:none;stroke:#1F3566;stroke-width:4.3042;stroke-miterlimit:10;" d="M325.059,253.178h18.015
							c3.58,0,6.482,2.902,6.482,6.482l0,0c0,3.58,2.902,6.482,6.482,6.482h70.996v-55.244h-47.578v-18.072"/>
						<path style="fill:none;stroke:#1F3566;stroke-width:4.3042;stroke-miterlimit:10;" d="M195.826,295.803h-8.078
							c-3.54,0-6.409-2.869-6.409-6.409v0c0-3.539-2.869-6.409-6.409-6.409h-58.507v30.013"/>
						<path style="fill:none;stroke:#1F3566;stroke-width:4.3042;stroke-miterlimit:10;" d="M195.826,253.178h-8.61
							c-3.54,0-6.409,2.869-6.409,6.409v0.146c0,3.54-2.869,6.409-6.409,6.409h-26.708v-77.893h57.483
							c9.895,0,17.917-8.022,17.917-17.917v-5"/>
						
							<line style="fill:none;stroke:#1F3566;stroke-width:4.3042;stroke-miterlimit:10;stroke-dasharray:10.636;" x1="252.268" y1="392.953" x2="369.835" y2="392.953"/>
						<polyline style="fill:none;stroke:#1F3566;stroke-width:4.3042;stroke-miterlimit:10;" points="414.466,392.953 
							433.003,392.953 433.003,297.992 385.652,297.992 385.652,267.068 						"/>
					</g>
				</g>
				<g>
					<g>
						<rect x="205.658" y="207.368" style="fill:#1F3566;" width="119.4" height="119.4"/>
						<rect x="195.826" y="207.368" style="fill:#8399EA;" width="119.4" height="119.4"/>
					</g>
					<g>
						<g>
							
								<ellipse transform="matrix(0.2257 -0.9742 0.9742 0.2257 -58.2038 459.6942)" style="fill:#FFD527;" cx="260.095" cy="266.464" rx="41.486" ry="41.486"/>
							<g>
								
									<ellipse transform="matrix(0.7071 -0.7071 0.7071 0.7071 -114.1213 257.4139)" style="fill:#FFE98D;" cx="253.665" cy="266.464" rx="41.486" ry="41.486"/>
							</g>
							<g>
								<circle style="fill:#F9F9F9;" cx="253.665" cy="266.464" r="32.908"/>
							</g>
						</g>
						<g>
							<path style="fill:none;stroke:#7480B8;stroke-width:4.2447;stroke-miterlimit:10;" d="M244.496,253.178v27.779h16.633
								c3.836,0,6.945-3.109,6.945-6.945l0,0c0-3.835-3.109-6.945-6.945-6.945h-16.633h11.03c3.835,0,6.945-3.109,6.945-6.945l0,0
								c0-3.836-3.109-6.945-6.945-6.945H244.496z"/>
							
								<line style="fill:none;stroke:#7480B8;stroke-width:4.2447;stroke-miterlimit:10;" x1="244.496" y1="253.178" x2="239.257" y2="253.178"/>
							
								<line style="fill:none;stroke:#7480B8;stroke-width:4.2447;stroke-miterlimit:10;" x1="244.496" y1="280.958" x2="239.257" y2="280.958"/>
							
								<line style="fill:none;stroke:#7480B8;stroke-width:4.2447;stroke-miterlimit:10;" x1="254.642" y1="242.699" x2="254.642" y2="253.178"/>
							
								<line style="fill:none;stroke:#7480B8;stroke-width:4.2447;stroke-miterlimit:10;" x1="247.59" y1="279.749" x2="247.59" y2="290.228"/>
							
								<line style="fill:none;stroke:#7480B8;stroke-width:4.2447;stroke-miterlimit:10;" x1="247.59" y1="242.699" x2="247.59" y2="253.178"/>
							
								<line style="fill:none;stroke:#7480B8;stroke-width:4.2447;stroke-miterlimit:10;" x1="254.642" y1="279.749" x2="254.642" y2="290.228"/>
						</g>
					</g>
				</g>
				<g>
					<g>
						<rect x="88.373" y="381.73" style="fill:#FFD527;" width="80.693" height="22.444"/>
						<rect x="66.997" y="381.73" style="fill:#1F3566;" width="80.693" height="22.444"/>
						<path style="fill:#FFD527;" d="M85.053,392.953c0,2.86-2.319,5.179-5.179,5.179c-2.86,0-5.179-2.319-5.179-5.179
							c0-2.86,2.319-5.179,5.179-5.179C82.735,387.774,85.053,390.092,85.053,392.953z"/>
						<path style="fill:#8399EA;" d="M102.817,392.953c0,2.86-2.319,5.179-5.179,5.179c-2.86,0-5.179-2.319-5.179-5.179
							c0-2.86,2.319-5.179,5.179-5.179C100.499,387.774,102.817,390.092,102.817,392.953z"/>
						<rect x="127.077" y="387.774" style="fill:#F9F9F9;" width="3.376" height="10.357"/>
						<rect x="134.29" y="387.774" style="fill:#F9F9F9;" width="3.376" height="10.357"/>
						<rect x="141.503" y="387.774" style="fill:#F9F9F9;" width="3.376" height="10.357"/>
					</g>
					<g>
						<rect x="88.373" y="347.365" style="fill:#1F3566;" width="80.693" height="22.444"/>
						<rect x="66.997" y="347.365" style="fill:#FFE98D;" width="80.693" height="22.444"/>
						<path style="fill:#F9F9F9;" d="M85.053,358.587c0,2.86-2.319,5.179-5.179,5.179c-2.86,0-5.179-2.319-5.179-5.179
							s2.319-5.179,5.179-5.179C82.735,353.408,85.053,355.727,85.053,358.587z"/>
						<path style="fill:#8399EA;" d="M102.817,358.587c0,2.86-2.319,5.179-5.179,5.179c-2.86,0-5.179-2.319-5.179-5.179
							s2.319-5.179,5.179-5.179C100.499,353.408,102.817,355.727,102.817,358.587z"/>
						<rect x="127.077" y="353.408" style="fill:#8399EA;" width="3.376" height="10.358"/>
						<rect x="134.29" y="353.408" style="fill:#8399EA;" width="3.376" height="10.358"/>
						<rect x="141.503" y="353.408" style="fill:#8399EA;" width="3.376" height="10.358"/>
					</g>
					<g>
						<rect x="88.373" y="312.999" style="fill:#FFD527;" width="80.693" height="22.445"/>
						<rect x="66.997" y="312.999" style="fill:#FFE98D;" width="80.693" height="22.445"/>
						<path style="fill:#FFD527;" d="M85.053,324.221c0,2.86-2.319,5.179-5.179,5.179c-2.86,0-5.179-2.319-5.179-5.179
							c0-2.86,2.319-5.179,5.179-5.179C82.735,319.042,85.053,321.361,85.053,324.221z"/>
						<path style="fill:#F9F9F9;" d="M102.817,324.221c0,2.86-2.319,5.179-5.179,5.179c-2.86,0-5.179-2.319-5.179-5.179
							c0-2.86,2.319-5.179,5.179-5.179C100.499,319.042,102.817,321.361,102.817,324.221z"/>
						<rect x="127.077" y="319.042" style="fill:#8399EA;" width="3.376" height="10.358"/>
						<rect x="134.29" y="319.042" style="fill:#1F3566;" width="3.376" height="10.358"/>
						<rect x="141.503" y="319.042" style="fill:#8399EA;" width="3.376" height="10.358"/>
					</g>
				</g>
				<g>
					<path style="fill:#FFD527;" d="M262.252,165.332H137.666v-8.125h127.949v4.762C265.615,163.826,264.11,165.332,262.252,165.332
						z"/>
					<path style="fill:#8399EA;" d="M265.615,157.207H137.666V85.928c0-1.857,1.506-3.363,3.363-3.363h121.223
						c1.857,0,3.363,1.506,3.363,3.363V157.207z"/>
					<path style="fill:#1F3566;" d="M265.615,157.207h-7.237V86.184c0-1.998,1.62-3.619,3.619-3.619l0,0
						c1.999,0,3.619,1.62,3.619,3.619V157.207z"/>
					<rect x="144.873" y="88.664" style="fill:#F9F9F9;" width="107.522" height="60.825"/>
					<path style="fill:#FFE98D;" d="M241.877,165.332H117.291c-1.857,0-3.363-1.506-3.363-3.363v-4.762h127.949V165.332z"/>
					<path style="fill:#FFD527;" d="M189.07,160.986h-23.953c-2.087,0-3.779-1.692-3.779-3.779l0,0h31.511l0,0
						C192.849,159.294,191.157,160.986,189.07,160.986z"/>
					<g>
						
							<line style="fill:none;stroke:#FFE98D;stroke-width:3.2282;stroke-miterlimit:10;" x1="156.125" y1="104.412" x2="212.18" y2="104.412"/>
						
							<line style="fill:none;stroke:#1F3566;stroke-width:4.3042;stroke-miterlimit:10;" x1="156.125" y1="112.768" x2="212.18" y2="112.768"/>
						
							<line style="fill:none;stroke:#1F3566;stroke-width:4.3042;stroke-miterlimit:10;" x1="156.125" y1="121.124" x2="212.18" y2="121.124"/>
						
							<line style="fill:none;stroke:#1F3566;stroke-width:4.3042;stroke-miterlimit:10;" x1="156.125" y1="129.48" x2="212.18" y2="129.48"/>
						
							<line style="fill:none;stroke:#8399EA;stroke-width:5.3803;stroke-miterlimit:10;" x1="216.162" y1="104.412" x2="223.091" y2="104.412"/>
						
							<line style="fill:none;stroke:#8399EA;stroke-width:5.3803;stroke-miterlimit:10;" x1="216.162" y1="112.768" x2="223.091" y2="112.768"/>
						
							<line style="fill:none;stroke:#8399EA;stroke-width:5.3803;stroke-miterlimit:10;" x1="216.162" y1="121.124" x2="223.091" y2="121.124"/>
						
							<line style="fill:none;stroke:#8399EA;stroke-width:5.3803;stroke-miterlimit:10;" x1="216.162" y1="129.48" x2="223.091" y2="129.48"/>
						
							<line style="fill:none;stroke:#8399EA;stroke-width:5.3803;stroke-miterlimit:10;" x1="227.478" y1="104.412" x2="234.406" y2="104.412"/>
						
							<line style="fill:none;stroke:#8399EA;stroke-width:5.3803;stroke-miterlimit:10;" x1="227.478" y1="112.768" x2="234.406" y2="112.768"/>
						
							<line style="fill:none;stroke:#8399EA;stroke-width:5.3803;stroke-miterlimit:10;" x1="227.478" y1="121.124" x2="234.406" y2="121.124"/>
						
							<line style="fill:none;stroke:#8399EA;stroke-width:5.3803;stroke-miterlimit:10;" x1="227.478" y1="129.48" x2="234.406" y2="129.48"/>
						
							<line style="fill:none;stroke:#1F3566;stroke-width:4.3042;stroke-miterlimit:10;" x1="156.125" y1="138.589" x2="185.455" y2="138.589"/>
					</g>
				</g>
				<g>
					<g>
						<defs>
							
								<ellipse id="SVGID_5_" transform="matrix(0.158 -0.9874 0.9874 0.158 177.1118 506.681)" cx="385.652" cy="149.49" rx="44.631" ry="44.631"/>
						</defs>
						<clipPath id="SVGID_6_">
							<use xlink:href="#SVGID_5_"  style="overflow:visible;"/>
						</clipPath>
						
							<ellipse transform="matrix(0.158 -0.9874 0.9874 0.158 177.1118 506.681)" style="clip-path:url(#SVGID_6_);fill:#FFD527;" cx="385.652" cy="149.49" rx="44.631" ry="44.631"/>
						
							<line style="clip-path:url(#SVGID_6_);fill:none;stroke:#7480B8;stroke-width:4.2447;stroke-miterlimit:10;" x1="337.024" y1="125.792" x2="437.192" y2="125.792"/>
						
							<line style="clip-path:url(#SVGID_6_);fill:none;stroke:#7480B8;stroke-width:4.2447;stroke-miterlimit:10;" x1="337.024" y1="149.49" x2="437.192" y2="149.49"/>
						
							<line style="clip-path:url(#SVGID_6_);fill:none;stroke:#7480B8;stroke-width:4.2447;stroke-miterlimit:10;" x1="337.024" y1="173.188" x2="437.192" y2="173.188"/>
					</g>
					<g>
						<defs>
							
								<ellipse id="SVGID_7_" transform="matrix(0.7071 -0.7071 0.7071 0.7071 5.4348 312.1003)" cx="379.456" cy="149.49" rx="44.631" ry="44.631"/>
						</defs>
						<clipPath id="SVGID_8_">
							<use xlink:href="#SVGID_7_"  style="overflow:visible;"/>
						</clipPath>
						
							<ellipse transform="matrix(0.7071 -0.7071 0.7071 0.7071 5.4348 312.1003)" style="clip-path:url(#SVGID_8_);fill:#FFE98D;" cx="379.456" cy="149.49" rx="44.631" ry="44.631"/>
						
							<line style="clip-path:url(#SVGID_8_);fill:none;stroke:#8795D6;stroke-width:4.2447;stroke-miterlimit:10;" x1="330.828" y1="125.792" x2="430.996" y2="125.792"/>
						
							<line style="clip-path:url(#SVGID_8_);fill:none;stroke:#8795D6;stroke-width:4.2447;stroke-miterlimit:10;" x1="330.828" y1="149.49" x2="430.996" y2="149.49"/>
						
							<line style="clip-path:url(#SVGID_8_);fill:none;stroke:#8795D6;stroke-width:4.2447;stroke-miterlimit:10;" x1="378.925" y1="194.12" x2="378.925" y2="104.859"/>
						<path style="clip-path:url(#SVGID_8_);fill:none;stroke:#8795D6;stroke-width:4.2447;stroke-miterlimit:10;" d="
							M378.925,194.12c-32.743,0-32.743-89.261,0-89.261"/>
						<path style="clip-path:url(#SVGID_8_);fill:none;stroke:#8795D6;stroke-width:4.2447;stroke-miterlimit:10;" d="
							M378.925,194.12c32.033,0,32.033-89.261,0-89.261"/>
						
							<line style="clip-path:url(#SVGID_8_);fill:none;stroke:#8795D6;stroke-width:4.2447;stroke-miterlimit:10;" x1="330.828" y1="173.188" x2="430.996" y2="173.188"/>
					</g>
				</g>
				<g>
					<g>
						<g>
							<rect x="356.837" y="367.461" style="fill:#FFD527;" width="57.629" height="57.629"/>
							<rect x="341.021" y="367.461" style="fill:#FFE98D;" width="57.629" height="57.629"/>
						</g>
						<path style="fill:#FFD527;" d="M379.847,392.322c0-4.625-3.75-8.375-8.375-8.375s-8.375,3.75-8.375,8.375
							c0,3.527,2.183,6.539,5.27,7.774v8.509h6.211v-8.509C377.663,398.861,379.847,395.849,379.847,392.322z"/>
					</g>
					<path style="fill:none;stroke:#7480B8;stroke-width:4.2447;stroke-miterlimit:10;" d="M358.301,367.461v-20.106
						c0-11.546,9.36-20.906,20.906-20.906l0,0c11.546,0,20.906,9.36,20.906,20.906v20.106"/>
					<path style="fill:none;stroke:#8795D6;stroke-width:4.2447;stroke-miterlimit:10;" d="M354.704,367.461v-20.106
						c0-11.546,9.36-20.906,20.906-20.906l0,0c11.546,0,20.906,9.36,20.906,20.906v20.106"/>
				</g>
			</g>
			<g>
				<g>
					<g>
						<defs>
							
								<ellipse id="SVGID_9_" transform="matrix(0.158 -0.9874 0.9874 0.158 177.1118 506.681)" cx="385.652" cy="149.49" rx="44.631" ry="44.631"/>
						</defs>
						<clipPath id="SVGID_10_">
							<use xlink:href="#SVGID_9_"  style="overflow:visible;"/>
						</clipPath>
					</g>
					<g>
						<defs>
							
								<ellipse id="SVGID_11_" transform="matrix(0.7071 -0.7071 0.7071 0.7071 5.4348 312.1003)" cx="379.456" cy="149.49" rx="44.631" ry="44.631"/>
						</defs>
						<clipPath id="SVGID_12_">
							<use xlink:href="#SVGID_11_"  style="overflow:visible;"/>
						</clipPath>
					</g>
				</g>
			</g>
		</g>
	</g>
</g>
<g id="DESIGNED_BY_FREEPIK">
</g>
</svg>
